:SAMPLES-PER-SECOND 30
:FULLY-SPECIFIED
:DEGREES
297
root  68.128 40.2634 -2.19288 -24.7 78.6224 -35.1051
RightUpLeg  -2.84954 -8.75419 -2.96937
RightLeg  4.68236 22.8624 4.23201
RightFoot  4.52465 -2.22027 16.0621
RightToes  -8.73116e-010 0 -3.6325e-017
Spine  22.0987 4.25825 -30.1033
Spine1  -20.2904 -0.483292 69.5042
HEad  4.84614 2.83085 -19.4804
LeftShoulder1  -1.89054 5.58111 -74.7362
LeftArm  -86.4299 -40.9343 95.9131
LeftForeArm  -14.9905 -24.2626 -5.90264
LeftHand  -1.30911 14.9333 -12.6234
RightShoulder  -16.6018 27.7108 -65.5859
RightArm  108.921 61.5439 29.5584
RightForeArm  18.3716 41.7307 169.216
RightHand  0.54626 -0.367937 12.7331
LeftUpLeg  -13.2041 7.81956 4.45837
LeftLeg  -1.90253 -12.3688 -1.76549
LeftFoot  8.7233 0.265826 -1.82801
LeftToes  -5.63919e-011 3.32596e-011 1.92487e-011
298
root  68.0041 40.1863 -2.12802 -24.3261 78.9113 -34.1239
RightUpLeg  -2.72489 -9.24159 -3.48763
RightLeg  5.83592 23.964 4.81924
RightFoot  3.06031 -2.09076 16.6044
RightToes  -8.73116e-010 0 -3.6325e-017
Spine  22.0723 4.24242 -30.8461
Spine1  -20.174 -0.588102 71.7209
HEad  5.09965 2.82167 -21.0302
LeftShoulder1  -1.12788 4.69426 -77.2567
LeftArm  -85.7412 -40.3505 96.5941
LeftForeArm  -6.57929 -23.4057 -5.33207
LeftHand  -1.60539 9.10331 -25.2087
RightShoulder  -17.9059 28.354 -68.2671
RightArm  112.407 58.868 36.2654
RightForeArm  14.7551 41.767 169.419
RightHand  0.545763 0.0297436 11.7015
LeftUpLeg  -13.4123 7.73893 4.17195
LeftLeg  -0.634336 -12.8892 -1.87489
LeftFoot  9.01951 -0.0558763 -0.0567212
LeftToes  -5.63919e-011 3.32596e-011 1.92487e-011
299
root  67.8315 40.0818 -2.03139 -24.1107 79.1198 -33.2951
RightUpLeg  -3.17845 -9.32564 -3.68404
RightLeg  8.03512 25.4148 5.32648
RightFoot  1.0155 -1.90535 17.5667
RightToes  -8.73116e-010 0 -3.6325e-017
Spine  22.0786 4.32397 -31.1471
Spine1  -19.9559 -0.637369 73.8718
HEad  5.00388 2.86315 -22.5058
LeftShoulder1  -0.0743262 3.57677 -80.5463
LeftArm  -84.8906 -39.4651 97.2405
LeftForeArm  21.033 -23.4092 -3.96017
LeftHand  23.7688 -21.1018 -63.0724
RightShoulder  -19.2323 28.9481 -70.9235
RightArm  114.625 56.2375 40.1094
RightForeArm  12.3465 42.3517 169.359
RightHand  0.530445 0.164178 11.115
LeftUpLeg  -13.7498 7.96413 4.26488
LeftLeg  1.02642 -12.8798 -2.41972
LeftFoot  6.78237 0.406101 -2.77529
LeftToes  -5.63919e-011 3.32596e-011 1.92487e-011
300
root  67.5725 39.9548 -1.81553 -24.6016 79.7399 -32.9088
RightUpLeg  -3.40029 -8.94118 -3.88237
RightLeg  10.3897 26.2528 5.85285
RightFoot  -1.65509 -1.66011 19.2986
RightToes  -8.73116e-010 0 -3.6325e-017
Spine  22.506 4.55093 -31.3965
Spine1  -19.5371 -0.811158 75.4394
HEad  4.79134 3.27406 -23.4708
LeftShoulder1  0.820205 2.73959 -84.1977
LeftArm  -86.2108 -38.5097 98.1625
LeftForeArm  69.198 -25.2034 -2.1518
LeftHand  86.1425 -82.7429 -98.9283
RightShoulder  -20.4983 29.7736 -72.8956
RightArm  116.428 52.745 43.2606
RightForeArm  10.2145 42.5317 169.429
RightHand  0.537579 0.746765 10.0979
LeftUpLeg  -14.0888 8.27078 4.25259
LeftLeg  2.83771 -14.1509 -3.12876
LeftFoot  6.92615 0.304144 -2.15499
LeftToes  -5.63919e-011 3.32596e-011 1.92487e-011
301
root  67.3985 39.8126 -1.65903 -23.2623 80.5809 -30.7396
RightUpLeg  -3.73539 -8.38045 -4.8512
RightLeg  13.6974 27.4087 7.23893
RightFoot  -4.04322 -1.31176 19.8915
RightToes  -8.73116e-010 0 -3.6325e-017
Spine  22.3091 4.3337 -31.9794
Spine1  -18.9608 -1.4488 76.9749
HEad  4.59197 3.30512 -24.4371
LeftShoulder1  1.70231 2.02668 -88.4664
LeftArm  -88.2851 -37.5585 97.5133
LeftForeArm  92.6683 -28.7593 -2.30602
LeftHand  -111.475 -40.868 152.214
RightShoulder  -21.8423 30.5244 -75.0502
RightArm  117.726 49.6791 45.9293
RightForeArm  7.38579 42.9896 169.456
RightHand  0.523611 0.828514 9.67954
LeftUpLeg  -14.5713 8.04046 3.73004
LeftLeg  4.96819 -14.3788 -3.5323
LeftFoot  5.75697 0.315189 -2.32944
LeftToes  -5.63919e-011 3.32596e-011 1.92487e-011
302
root  67.1973 39.7225 -1.42931 -23.891 81.3106 -30.1026
RightUpLeg  -3.5468 -5.54594 -5.44974
RightLeg  17.5091 25.6274 8.44622
RightFoot  -5.71486 -0.954832 18.4718
RightToes  -8.73116e-010 0 -3.6325e-017
Spine  22.4327 4.35448 -32.1188
Spine1  -18.5381 -1.81004 78.2638
HEad  4.25896 3.1619 -25.1363
LeftShoulder1  2.56925 1.44409 -92.7207
LeftArm  -88.6978 -36.9948 94.8772
LeftForeArm  89.4399 -33.9614 -3.45749
LeftHand  -89.5476 -32.2619 143.539
RightShoulder  -23.227 31.5566 -76.7206
RightArm  118.652 46.0708 47.6839
RightForeArm  3.5558 45.1038 168.914
RightHand  0.482664 0.189674 9.91361
LeftUpLeg  -14.5009 8.2198 3.68481
LeftLeg  6.83985 -14.8469 -4.07279
LeftFoot  4.8395 0.257295 -2.03205
LeftToes  -5.63919e-011 3.32596e-011 1.92487e-011
303
root  67.0808 39.6379 -1.26936 -25.3272 82.1456 -30.8079
RightUpLeg  -3.67043 -3.17075 -6.14075
RightLeg  21.5099 22.6584 9.34545
RightFoot  -7.26505 -0.646141 16.6835
RightToes  -8.73116e-010 0 -3.6325e-017
Spine  22.0773 3.78306 -31.9509
Spine1  -18.5214 -2.33065 79.3542
HEad  3.88681 2.78846 -25.8043
LeftShoulder1  3.52453 0.816566 -95.8341
LeftArm  -84.3057 -36.2647 89.6682
LeftForeArm  95.3045 -40.3074 -4.84543
LeftHand  -98.8134 -39.0306 143.333
RightShoulder  -24.5548 32.2034 -78.7453
RightArm  117.924 43.5847 45.8604
RightForeArm  -3.44304 52.0264 166.3
RightHand  0.0805441 -4.11618 13.3261
LeftUpLeg  -14.5274 7.72594 3.27778
LeftLeg  7.83615 -15.4463 -3.94515
LeftFoot  5.87213 0.0860026 -0.797492
LeftToes  -5.63919e-011 3.32596e-011 1.92487e-011
